<svg width="360" height="327" viewBox="0 0 360 327" fill="none" xmlns="http://www.w3.org/2000/svg">
<path d="M269.285 254.393C266.521 254.393 264.022 253.75 261.788 252.462C259.592 251.175 257.87 249.396 256.62 247.124C255.371 244.815 254.746 242.24 254.746 239.4C254.746 236.675 255.333 234.176 256.507 231.904C257.718 229.595 259.403 227.777 261.561 226.452C263.719 225.089 266.18 224.408 268.944 224.408C271.783 224.408 274.244 225.032 276.327 226.282C278.447 227.531 280.056 229.273 281.154 231.507C282.252 233.702 282.801 236.239 282.801 239.117C282.801 239.457 282.782 239.798 282.744 240.139C282.706 240.479 282.687 240.669 282.687 240.707H260.993C261.182 243.281 262.11 245.269 263.776 246.67C265.442 248.071 267.335 248.771 269.455 248.771C272.711 248.771 275.21 247.257 276.951 244.228L282.29 246.783C281.04 249.093 279.299 250.948 277.065 252.349C274.869 253.712 272.275 254.393 269.285 254.393ZM276.44 235.936C276.364 235.028 276.062 234.1 275.531 233.153C275.001 232.207 274.169 231.412 273.033 230.768C271.935 230.087 270.553 229.746 268.887 229.746C267.032 229.746 265.423 230.314 264.06 231.45C262.735 232.586 261.826 234.081 261.334 235.936H276.44Z" fill="#5A5A5A"/>
<path d="M241.035 254.393C237.817 254.393 235.148 253.655 233.027 252.178C230.945 250.664 229.468 248.771 228.598 246.499L234.163 244.114C234.807 245.666 235.734 246.84 236.946 247.635C238.195 248.43 239.558 248.828 241.035 248.828C242.587 248.828 243.855 248.544 244.84 247.976C245.824 247.37 246.316 246.594 246.316 245.647C246.316 244.739 245.919 244.001 245.124 243.433C244.329 242.827 243.022 242.297 241.205 241.842L237.343 240.934C235.223 240.442 233.387 239.533 231.835 238.208C230.32 236.845 229.563 235.084 229.563 232.926C229.563 230.314 230.642 228.251 232.8 226.736C234.958 225.184 237.608 224.408 240.751 224.408C243.363 224.408 245.673 224.957 247.679 226.055C249.724 227.153 251.2 228.743 252.109 230.825L246.6 233.153C246.07 231.98 245.256 231.109 244.158 230.541C243.06 229.973 241.868 229.689 240.581 229.689C239.331 229.689 238.233 229.973 237.287 230.541C236.34 231.071 235.867 231.791 235.867 232.699C235.867 233.494 236.189 234.138 236.832 234.63C237.514 235.122 238.574 235.539 240.013 235.879L244.215 236.902C247.055 237.621 249.175 238.719 250.576 240.196C251.977 241.634 252.677 243.376 252.677 245.42C252.677 247.086 252.166 248.601 251.144 249.964C250.159 251.327 248.777 252.406 246.998 253.201C245.256 253.996 243.269 254.393 241.035 254.393Z" fill="#5A5A5A"/>
<path d="M211.149 254.393C209.143 254.393 207.325 253.996 205.697 253.201C204.107 252.368 202.839 251.232 201.892 249.793C200.984 248.317 200.529 246.651 200.529 244.796C200.529 241.842 201.627 239.514 203.823 237.81C206.057 236.107 208.878 235.255 212.285 235.255C215.276 235.255 217.832 235.766 219.952 236.788V235.595C219.952 233.892 219.27 232.491 217.907 231.393C216.582 230.257 214.973 229.689 213.08 229.689C210.203 229.689 207.893 230.863 206.152 233.21L201.381 229.916C202.706 228.137 204.353 226.774 206.322 225.827C208.329 224.881 210.581 224.408 213.08 224.408C217.207 224.408 220.387 225.449 222.621 227.531C224.893 229.576 226.028 232.472 226.028 236.22V253.485H219.952V250.02H219.611C218.702 251.308 217.548 252.368 216.147 253.201C214.746 253.996 213.08 254.393 211.149 254.393ZM212.171 249.225C213.572 249.225 214.859 248.885 216.033 248.203C217.245 247.484 218.191 246.556 218.873 245.42C219.592 244.247 219.952 242.997 219.952 241.672C217.945 240.574 215.806 240.025 213.534 240.025C211.452 240.025 209.824 240.479 208.65 241.388C207.477 242.297 206.89 243.452 206.89 244.852C206.89 246.14 207.401 247.2 208.423 248.033C209.483 248.828 210.733 249.225 212.171 249.225Z" fill="#5A5A5A"/>
<path d="M184.939 254.393C182.894 254.393 181.058 253.958 179.43 253.087C177.84 252.216 176.648 251.118 175.852 249.793H175.512V253.484H169.605V212.822H175.852V225.032L175.512 228.951H175.852C176.648 227.664 177.84 226.585 179.43 225.714C181.058 224.843 182.894 224.408 184.939 224.408C187.362 224.408 189.596 225.051 191.64 226.338C193.723 227.626 195.37 229.424 196.581 231.734C197.83 234.005 198.455 236.561 198.455 239.4C198.455 242.24 197.83 244.795 196.581 247.067C195.37 249.339 193.723 251.137 191.64 252.462C189.596 253.749 187.362 254.393 184.939 254.393ZM183.86 248.657C185.336 248.657 186.699 248.279 187.949 247.521C189.236 246.764 190.258 245.685 191.016 244.284C191.811 242.846 192.208 241.218 192.208 239.4C192.208 237.583 191.811 235.974 191.016 234.573C190.258 233.134 189.236 232.036 187.949 231.279C186.699 230.522 185.336 230.143 183.86 230.143C182.383 230.143 181.001 230.522 179.714 231.279C178.465 232.036 177.443 233.115 176.648 234.516C175.89 235.917 175.512 237.545 175.512 239.4C175.512 241.255 175.89 242.883 176.648 244.284C177.443 245.685 178.465 246.764 179.714 247.521C181.001 248.279 182.383 248.657 183.86 248.657Z" fill="#5A5A5A"/>
<path d="M152.369 254.393C149.605 254.393 147.106 253.75 144.872 252.462C142.676 251.175 140.954 249.396 139.704 247.124C138.455 244.815 137.83 242.24 137.83 239.4C137.83 236.675 138.417 234.176 139.591 231.904C140.802 229.595 142.487 227.777 144.645 226.452C146.803 225.089 149.264 224.408 152.028 224.408C154.867 224.408 157.328 225.032 159.411 226.282C161.531 227.531 163.14 229.273 164.238 231.507C165.336 233.702 165.885 236.239 165.885 239.117C165.885 239.457 165.866 239.798 165.828 240.139C165.79 240.479 165.771 240.669 165.771 240.707H144.077C144.266 243.281 145.194 245.269 146.86 246.67C148.526 248.071 150.419 248.771 152.539 248.771C155.795 248.771 158.294 247.257 160.035 244.228L165.374 246.783C164.124 249.093 162.383 250.948 160.149 252.349C157.953 253.712 155.359 254.393 152.369 254.393ZM159.524 235.936C159.448 235.028 159.146 234.1 158.615 233.153C158.085 232.207 157.253 231.412 156.117 230.768C155.019 230.087 153.637 229.746 151.971 229.746C150.116 229.746 148.507 230.314 147.144 231.45C145.819 232.586 144.91 234.081 144.418 235.936H159.524Z" fill="#5A5A5A"/>
<path d="M120.494 225.316H126.4V229.519H126.741C127.347 228.08 128.445 226.888 130.035 225.941C131.625 224.957 133.253 224.465 134.919 224.465C136.282 224.465 137.399 224.654 138.27 225.033V231.563C136.982 230.92 135.544 230.598 133.954 230.598C131.909 230.598 130.186 231.393 128.786 232.983C127.423 234.535 126.741 236.447 126.741 238.719V253.485H120.494V225.316Z" fill="#5A5A5A"/>
<path d="M111.578 220.546C110.404 220.546 109.401 220.148 108.568 219.353C107.773 218.52 107.375 217.517 107.375 216.343C107.375 215.17 107.773 214.185 108.568 213.39C109.401 212.557 110.404 212.141 111.578 212.141C112.751 212.141 113.736 212.557 114.531 213.39C115.364 214.185 115.78 215.17 115.78 216.343C115.78 217.517 115.364 218.52 114.531 219.353C113.736 220.148 112.751 220.546 111.578 220.546ZM108.454 225.316H114.701V253.485H108.454V225.316Z" fill="#5A5A5A"/>
<path d="M80 212.822H104.704V218.899H86.3606V230.598H102.887V236.618H86.3606V253.484H80V212.822Z" fill="#5A5A5A"/>
<path d="M15.7312 269.099H21.1987L36.6898 309.877H31.3932L27.2926 298.657H9.69429L5.59371 309.877H0.297128L15.7312 269.099ZM25.641 294.101L20.2305 279.407L18.5789 275.022H18.3511L16.7564 279.407L11.3459 294.101H25.641ZM49.08 310.788C45.587 310.788 42.9102 309.763 41.0497 307.713C39.2273 305.662 38.316 302.796 38.316 299.113V280.831H43.157V298.372C43.157 301.144 43.7835 303.175 45.0364 304.466C46.2894 305.757 47.979 306.403 50.1052 306.403C51.7378 306.403 53.1806 305.966 54.4336 305.093C55.7245 304.219 56.7117 303.08 57.3951 301.676C58.1165 300.271 58.4772 298.79 58.4772 297.233V280.831H63.3182V309.877H58.705V305.662H58.4772C57.6799 307.105 56.4079 308.32 54.6614 309.307C52.9148 310.294 51.0544 310.788 49.08 310.788ZM80.7701 310.332C79.5931 310.332 78.492 310.142 77.4668 309.763C76.4797 309.383 75.6444 308.871 74.9609 308.225C74.2016 307.504 73.632 306.668 73.2524 305.719C72.8727 304.77 72.6828 303.612 72.6828 302.245V285.216H67.6141V280.831H72.6828V272.63H77.5238V280.831H84.5859V285.216H77.5238V301.049C77.5238 302.644 77.8275 303.821 78.435 304.58C79.1564 305.415 80.2006 305.833 81.5674 305.833C82.6685 305.833 83.7316 305.51 84.7568 304.865V309.592C84.1872 309.858 83.5987 310.048 82.9912 310.161C82.4217 310.275 81.6813 310.332 80.7701 310.332ZM89.6031 269.099H94.444V281.116L94.2162 285.102H94.444C95.2414 283.622 96.4943 282.388 98.2029 281.4C99.9494 280.413 101.848 279.92 103.898 279.92C107.429 279.92 110.125 280.964 111.985 283.052C113.846 285.102 114.776 287.836 114.776 291.253V309.877H109.935V291.994C109.935 289.374 109.271 287.437 107.942 286.184C106.613 284.932 104.885 284.305 102.759 284.305C101.24 284.305 99.8355 284.761 98.5446 285.672C97.2917 286.583 96.2855 287.76 95.5261 289.203C94.8047 290.646 94.444 292.146 94.444 293.702V309.877H89.6031V269.099ZM133.539 310.788C130.768 310.788 128.281 310.124 126.078 308.795C123.876 307.466 122.149 305.643 120.896 303.327C119.681 300.973 119.073 298.334 119.073 295.411C119.073 292.601 119.643 290.019 120.782 287.665C121.959 285.311 123.611 283.432 125.737 282.027C127.863 280.622 130.331 279.92 133.141 279.92C135.988 279.92 138.456 280.565 140.544 281.856C142.633 283.109 144.227 284.856 145.328 287.096C146.467 289.336 147.037 291.899 147.037 294.784C147.037 295.354 146.98 295.847 146.866 296.265H123.914C124.028 298.467 124.56 300.328 125.509 301.846C126.458 303.365 127.654 304.504 129.097 305.264C130.578 306.023 132.115 306.403 133.71 306.403C137.431 306.403 140.298 304.656 142.31 301.163L146.41 303.156C145.158 305.51 143.449 307.371 141.285 308.738C139.159 310.105 136.577 310.788 133.539 310.788ZM141.911 292.278C141.835 291.063 141.494 289.848 140.886 288.633C140.279 287.418 139.31 286.393 137.982 285.558C136.691 284.723 135.058 284.305 133.084 284.305C130.806 284.305 128.869 285.045 127.274 286.526C125.718 287.969 124.693 289.886 124.199 292.278H141.911ZM151.563 280.831H156.176V285.102H156.404C157.202 283.66 158.474 282.445 160.22 281.457C161.967 280.432 163.827 279.92 165.801 279.92C169.295 279.92 171.952 280.945 173.775 282.995C175.635 285.007 176.565 287.76 176.565 291.253V309.877H171.725V291.994C171.725 289.298 171.079 287.343 169.788 286.128C168.497 284.913 166.732 284.305 164.492 284.305C162.935 284.305 161.53 284.742 160.277 285.615C159.062 286.488 158.113 287.646 157.429 289.089C156.746 290.494 156.404 291.975 156.404 293.531V309.877H151.563V280.831ZM192.065 310.332C190.888 310.332 189.787 310.142 188.762 309.763C187.775 309.383 186.94 308.871 186.256 308.225C185.497 307.504 184.927 306.668 184.548 305.719C184.168 304.77 183.978 303.612 183.978 302.245V285.216H178.909V280.831H183.978V272.63H188.819V280.831H195.881V285.216H188.819V301.049C188.819 302.644 189.123 303.821 189.73 304.58C190.452 305.415 191.496 305.833 192.863 305.833C193.964 305.833 195.027 305.51 196.052 304.865V309.592C195.483 309.858 194.894 310.048 194.287 310.161C193.717 310.275 192.977 310.332 192.065 310.332ZM203.746 275.477C202.797 275.477 201.981 275.136 201.297 274.452C200.614 273.769 200.272 272.953 200.272 272.003C200.272 271.054 200.614 270.257 201.297 269.611C201.981 268.928 202.797 268.586 203.746 268.586C204.695 268.586 205.512 268.928 206.195 269.611C206.878 270.257 207.22 271.054 207.22 272.003C207.22 272.953 206.878 273.769 206.195 274.452C205.55 275.136 204.733 275.477 203.746 275.477ZM201.354 280.831H206.138V309.877H201.354V280.831ZM225.485 310.788C222.675 310.788 220.15 310.124 217.91 308.795C215.67 307.428 213.924 305.586 212.671 303.27C211.418 300.916 210.791 298.277 210.791 295.354C210.791 292.43 211.418 289.791 212.671 287.437C213.924 285.083 215.67 283.242 217.91 281.913C220.15 280.584 222.675 279.92 225.485 279.92C228.636 279.92 231.275 280.66 233.401 282.141C235.566 283.584 237.103 285.52 238.015 287.95L233.629 289.772C232.908 287.988 231.826 286.64 230.383 285.729C228.978 284.78 227.27 284.305 225.257 284.305C223.549 284.305 221.954 284.78 220.473 285.729C218.992 286.64 217.796 287.931 216.885 289.602C216.012 291.272 215.575 293.19 215.575 295.354C215.575 297.518 216.012 299.435 216.885 301.106C217.796 302.777 218.992 304.087 220.473 305.036C221.954 305.947 223.549 306.403 225.257 306.403C227.307 306.403 229.073 305.928 230.554 304.979C232.035 304.03 233.136 302.682 233.857 300.935L238.185 302.758C237.198 305.15 235.604 307.086 233.401 308.567C231.237 310.048 228.598 310.788 225.485 310.788ZM251.285 310.788C249.159 310.788 247.261 310.37 245.59 309.535C243.919 308.7 242.629 307.561 241.717 306.118C240.806 304.637 240.35 302.966 240.35 301.106C240.35 298.031 241.509 295.639 243.825 293.93C246.141 292.183 249.064 291.31 252.595 291.31C254.342 291.31 255.955 291.5 257.436 291.88C258.955 292.259 260.113 292.696 260.91 293.19V291.424C260.91 289.26 260.151 287.532 258.632 286.241C257.113 284.913 255.196 284.248 252.88 284.248C251.247 284.248 249.748 284.609 248.381 285.33C247.014 286.014 245.932 286.982 245.134 288.235L241.49 285.501C242.629 283.755 244.185 282.388 246.16 281.4C248.172 280.413 250.393 279.92 252.823 279.92C256.772 279.92 259.866 280.964 262.106 283.052C264.384 285.102 265.523 287.912 265.523 291.481V309.877H260.91V305.719H260.683C259.847 307.124 258.594 308.32 256.924 309.307C255.253 310.294 253.374 310.788 251.285 310.788ZM251.741 306.517C253.374 306.517 254.892 306.099 256.297 305.264C257.702 304.428 258.822 303.308 259.657 301.903C260.493 300.499 260.91 298.961 260.91 297.29C259.999 296.683 258.879 296.189 257.55 295.809C256.221 295.43 254.816 295.24 253.336 295.24C250.678 295.24 248.666 295.79 247.299 296.892C245.97 297.993 245.305 299.416 245.305 301.163C245.305 302.758 245.913 304.049 247.128 305.036C248.343 306.023 249.881 306.517 251.741 306.517ZM281.726 310.332C280.549 310.332 279.447 310.142 278.422 309.763C277.435 309.383 276.6 308.871 275.916 308.225C275.157 307.504 274.588 306.668 274.208 305.719C273.828 304.77 273.638 303.612 273.638 302.245V285.216H268.57V280.831H273.638V272.63H278.479V280.831H285.541V285.216H278.479V301.049C278.479 302.644 278.783 303.821 279.391 304.58C280.112 305.415 281.156 305.833 282.523 305.833C283.624 305.833 284.687 305.51 285.712 304.865V309.592C285.143 309.858 284.554 310.048 283.947 310.161C283.377 310.275 282.637 310.332 281.726 310.332ZM293.406 275.477C292.457 275.477 291.641 275.136 290.957 274.452C290.274 273.769 289.932 272.953 289.932 272.003C289.932 271.054 290.274 270.257 290.957 269.611C291.641 268.928 292.457 268.586 293.406 268.586C294.355 268.586 295.172 268.928 295.855 269.611C296.539 270.257 296.88 271.054 296.88 272.003C296.88 272.953 296.539 273.769 295.855 274.452C295.21 275.136 294.393 275.477 293.406 275.477ZM291.014 280.831H295.798V309.877H291.014V280.831ZM315.373 310.788C312.525 310.788 309.962 310.105 307.684 308.738C305.406 307.371 303.622 305.51 302.331 303.156C301.078 300.802 300.451 298.201 300.451 295.354C300.451 292.506 301.078 289.905 302.331 287.551C303.622 285.197 305.406 283.337 307.684 281.97C309.962 280.603 312.525 279.92 315.373 279.92C318.221 279.92 320.783 280.603 323.061 281.97C325.34 283.337 327.105 285.197 328.358 287.551C329.649 289.905 330.294 292.506 330.294 295.354C330.294 298.201 329.649 300.802 328.358 303.156C327.105 305.51 325.34 307.371 323.061 308.738C320.783 310.105 318.221 310.788 315.373 310.788ZM315.373 306.403C317.157 306.403 318.809 305.966 320.328 305.093C321.884 304.181 323.118 302.891 324.03 301.22C324.979 299.549 325.453 297.594 325.453 295.354C325.453 293.114 324.979 291.158 324.03 289.488C323.118 287.817 321.884 286.545 320.328 285.672C318.809 284.761 317.157 284.305 315.373 284.305C313.588 284.305 311.918 284.761 310.361 285.672C308.804 286.545 307.551 287.817 306.602 289.488C305.691 291.158 305.235 293.114 305.235 295.354C305.235 297.594 305.691 299.549 306.602 301.22C307.551 302.891 308.804 304.181 310.361 305.093C311.918 305.966 313.588 306.403 315.373 306.403ZM334.221 280.831H338.834V285.102H339.062C339.859 283.66 341.131 282.445 342.877 281.457C344.624 280.432 346.484 279.92 348.459 279.92C351.952 279.92 354.61 280.945 356.432 282.995C358.293 285.007 359.223 287.76 359.223 291.253V309.877H354.382V291.994C354.382 289.298 353.736 287.343 352.445 286.128C351.155 284.913 349.389 284.305 347.149 284.305C345.592 284.305 344.187 284.742 342.934 285.615C341.719 286.488 340.77 287.646 340.087 289.089C339.403 290.494 339.062 291.975 339.062 293.531V309.877H334.221V280.831Z" fill="#5A5A5A"/>
<path d="M154.196 176.072C161.728 179.103 169.9 180.902 178.48 181.202C190.092 181.607 201.135 179.206 211.006 174.646C199.169 169.995 188.448 163.193 179.298 154.737C173.366 164.233 164.594 171.734 154.196 176.072Z" fill="#FF9100"/>
<path d="M179.298 154.74C158.411 135.422 145.74 107.463 146.811 76.7968C146.846 75.801 146.898 74.8057 146.96 73.8108C143.219 72.8434 139.314 72.253 135.295 72.1127C129.542 71.9118 123.971 72.6253 118.712 74.1063C113.136 83.8732 109.771 95.0793 109.352 107.083C108.27 138.06 127.017 165.128 154.196 176.074C164.594 171.737 173.366 164.245 179.298 154.74Z" fill="#FFC400"/>
<path d="M179.298 154.739C184.154 146.968 187.099 137.857 187.441 128.041C188.343 102.22 170.985 80.0082 146.96 73.8101C146.899 74.805 146.846 75.8002 146.812 76.796C145.741 107.462 158.412 135.422 179.298 154.739Z" fill="#FF9100"/>
<path d="M184.755 1.23018C171.072 12.1917 160.268 26.6455 153.731 43.2959C149.988 52.833 147.636 63.0774 146.95 73.8163C170.974 80.0144 188.332 102.226 187.43 128.047C187.088 137.863 184.135 146.965 179.287 154.745C188.437 163.21 199.158 170.003 210.996 174.654C234.757 163.67 251.615 140.036 252.591 112.082C253.224 93.9699 246.265 77.8275 236.432 64.202C226.048 49.7916 184.755 1.23018 184.755 1.23018Z" fill="#DD2C00"/>
<g filter="url(#filter0_d_57_5480)">
<circle cx="257" cy="137" r="45" fill="white"/>
<path d="M232.25 155V148.7C232.25 147.425 232.578 146.253 233.234 145.184C233.891 144.116 234.762 143.3 235.85 142.737C238.175 141.575 240.537 140.703 242.938 140.122C245.337 139.541 247.775 139.25 250.25 139.25C252.725 139.25 255.162 139.541 257.562 140.122C259.962 140.703 262.325 141.575 264.65 142.737C265.737 143.3 266.609 144.116 267.266 145.184C267.922 146.253 268.25 147.425 268.25 148.7V155H232.25ZM272.75 155V148.25C272.75 146.6 272.291 145.016 271.372 143.497C270.453 141.978 269.15 140.675 267.462 139.587C269.375 139.812 271.175 140.197 272.862 140.741C274.55 141.284 276.125 141.95 277.587 142.737C278.938 143.487 279.969 144.322 280.681 145.241C281.394 146.159 281.75 147.162 281.75 148.25V155H272.75ZM250.25 137C247.775 137 245.656 136.119 243.894 134.356C242.131 132.594 241.25 130.475 241.25 128C241.25 125.525 242.131 123.406 243.894 121.644C245.656 119.881 247.775 119 250.25 119C252.725 119 254.844 119.881 256.606 121.644C258.369 123.406 259.25 125.525 259.25 128C259.25 130.475 258.369 132.594 256.606 134.356C254.844 136.119 252.725 137 250.25 137ZM272.75 128C272.75 130.475 271.869 132.594 270.106 134.356C268.344 136.119 266.225 137 263.75 137C263.337 137 262.812 136.953 262.175 136.859C261.537 136.766 261.012 136.663 260.6 136.55C261.612 135.35 262.391 134.019 262.934 132.556C263.478 131.094 263.75 129.575 263.75 128C263.75 126.425 263.478 124.906 262.934 123.444C262.391 121.981 261.612 120.65 260.6 119.45C261.125 119.262 261.65 119.141 262.175 119.084C262.7 119.028 263.225 119 263.75 119C266.225 119 268.344 119.881 270.106 121.644C271.869 123.406 272.75 125.525 272.75 128Z" fill="#1F1F1F"/>
</g>
<defs>
<filter id="filter0_d_57_5480" x="206" y="88.0029" width="102" height="102" filterUnits="userSpaceOnUse" color-interpolation-filters="sRGB">
<feFlood flood-opacity="0" result="BackgroundImageFix"/>
<feColorMatrix in="SourceAlpha" type="matrix" values="0 0 0 0 0 0 0 0 0 0 0 0 0 0 0 0 0 0 127 0" result="hardAlpha"/>
<feOffset dy="2.0029"/>
<feGaussianBlur stdDeviation="3"/>
<feComposite in2="hardAlpha" operator="out"/>
<feColorMatrix type="matrix" values="0 0 0 0 0 0 0 0 0 0 0 0 0 0 0 0 0 0 0.3 0"/>
<feBlend mode="normal" in2="BackgroundImageFix" result="effect1_dropShadow_57_5480"/>
<feBlend mode="normal" in="SourceGraphic" in2="effect1_dropShadow_57_5480" result="shape"/>
</filter>
</defs>
</svg>
