<svg width="372" height="327" viewBox="0 0 372 327" fill="none" xmlns="http://www.w3.org/2000/svg">
<path d="M273.285 254.393C270.521 254.393 268.022 253.75 265.788 252.462C263.592 251.175 261.87 249.396 260.62 247.124C259.371 244.815 258.746 242.24 258.746 239.4C258.746 236.675 259.333 234.176 260.507 231.904C261.718 229.595 263.403 227.777 265.561 226.452C267.719 225.089 270.18 224.408 272.944 224.408C275.783 224.408 278.244 225.032 280.327 226.282C282.447 227.531 284.056 229.273 285.154 231.507C286.252 233.702 286.801 236.239 286.801 239.117C286.801 239.457 286.782 239.798 286.744 240.139C286.706 240.479 286.687 240.669 286.687 240.707H264.993C265.182 243.281 266.11 245.269 267.776 246.67C269.442 248.071 271.335 248.771 273.455 248.771C276.711 248.771 279.21 247.257 280.951 244.228L286.29 246.783C285.04 249.093 283.299 250.948 281.065 252.349C278.869 253.712 276.275 254.393 273.285 254.393ZM280.44 235.936C280.364 235.028 280.062 234.1 279.531 233.153C279.001 232.207 278.169 231.412 277.033 230.768C275.935 230.087 274.553 229.746 272.887 229.746C271.032 229.746 269.423 230.314 268.06 231.45C266.735 232.586 265.826 234.081 265.334 235.936H280.44Z" fill="#5A5A5A"/>
<path d="M245.035 254.393C241.817 254.393 239.148 253.655 237.027 252.178C234.945 250.664 233.468 248.771 232.598 246.499L238.163 244.114C238.807 245.666 239.734 246.84 240.946 247.635C242.195 248.43 243.558 248.828 245.035 248.828C246.587 248.828 247.855 248.544 248.84 247.976C249.824 247.37 250.316 246.594 250.316 245.647C250.316 244.739 249.919 244.001 249.124 243.433C248.329 242.827 247.022 242.297 245.205 241.842L241.343 240.934C239.223 240.442 237.387 239.533 235.835 238.208C234.32 236.845 233.563 235.084 233.563 232.926C233.563 230.314 234.642 228.251 236.8 226.736C238.958 225.184 241.608 224.408 244.751 224.408C247.363 224.408 249.673 224.957 251.679 226.055C253.724 227.153 255.2 228.743 256.109 230.825L250.6 233.153C250.07 231.98 249.256 231.109 248.158 230.541C247.06 229.973 245.868 229.689 244.581 229.689C243.331 229.689 242.233 229.973 241.287 230.541C240.34 231.071 239.867 231.791 239.867 232.699C239.867 233.494 240.189 234.138 240.832 234.63C241.514 235.122 242.574 235.539 244.013 235.879L248.215 236.902C251.055 237.621 253.175 238.719 254.576 240.196C255.977 241.634 256.677 243.376 256.677 245.42C256.677 247.086 256.166 248.601 255.144 249.964C254.159 251.327 252.777 252.406 250.998 253.201C249.256 253.996 247.269 254.393 245.035 254.393Z" fill="#5A5A5A"/>
<path d="M215.149 254.393C213.143 254.393 211.325 253.996 209.697 253.201C208.107 252.368 206.839 251.232 205.892 249.793C204.984 248.317 204.529 246.651 204.529 244.796C204.529 241.842 205.627 239.514 207.823 237.81C210.057 236.107 212.878 235.255 216.285 235.255C219.276 235.255 221.832 235.766 223.952 236.788V235.595C223.952 233.892 223.27 232.491 221.907 231.393C220.582 230.257 218.973 229.689 217.08 229.689C214.203 229.689 211.893 230.863 210.152 233.21L205.381 229.916C206.706 228.137 208.353 226.774 210.322 225.827C212.329 224.881 214.581 224.408 217.08 224.408C221.207 224.408 224.387 225.449 226.621 227.531C228.893 229.576 230.028 232.472 230.028 236.22V253.485H223.952V250.02H223.611C222.702 251.308 221.548 252.368 220.147 253.201C218.746 253.996 217.08 254.393 215.149 254.393ZM216.171 249.225C217.572 249.225 218.859 248.885 220.033 248.203C221.245 247.484 222.191 246.556 222.873 245.42C223.592 244.247 223.952 242.997 223.952 241.672C221.945 240.574 219.806 240.025 217.534 240.025C215.452 240.025 213.824 240.479 212.65 241.388C211.477 242.297 210.89 243.452 210.89 244.852C210.89 246.14 211.401 247.2 212.423 248.033C213.483 248.828 214.733 249.225 216.171 249.225Z" fill="#5A5A5A"/>
<path d="M188.939 254.393C186.894 254.393 185.058 253.958 183.43 253.087C181.84 252.216 180.648 251.118 179.852 249.793H179.512V253.484H173.605V212.822H179.852V225.032L179.512 228.951H179.852C180.648 227.664 181.84 226.585 183.43 225.714C185.058 224.843 186.894 224.408 188.939 224.408C191.362 224.408 193.596 225.051 195.64 226.338C197.723 227.626 199.37 229.424 200.581 231.734C201.83 234.005 202.455 236.561 202.455 239.4C202.455 242.24 201.83 244.795 200.581 247.067C199.37 249.339 197.723 251.137 195.64 252.462C193.596 253.749 191.362 254.393 188.939 254.393ZM187.86 248.657C189.336 248.657 190.699 248.279 191.949 247.521C193.236 246.764 194.258 245.685 195.016 244.284C195.811 242.846 196.208 241.218 196.208 239.4C196.208 237.583 195.811 235.974 195.016 234.573C194.258 233.134 193.236 232.036 191.949 231.279C190.699 230.522 189.336 230.143 187.86 230.143C186.383 230.143 185.001 230.522 183.714 231.279C182.465 232.036 181.443 233.115 180.648 234.516C179.89 235.917 179.512 237.545 179.512 239.4C179.512 241.255 179.89 242.883 180.648 244.284C181.443 245.685 182.465 246.764 183.714 247.521C185.001 248.279 186.383 248.657 187.86 248.657Z" fill="#5A5A5A"/>
<path d="M156.369 254.393C153.605 254.393 151.106 253.75 148.872 252.462C146.676 251.175 144.954 249.396 143.704 247.124C142.455 244.815 141.83 242.24 141.83 239.4C141.83 236.675 142.417 234.176 143.591 231.904C144.802 229.595 146.487 227.777 148.645 226.452C150.803 225.089 153.264 224.408 156.028 224.408C158.867 224.408 161.328 225.032 163.411 226.282C165.531 227.531 167.14 229.273 168.238 231.507C169.336 233.702 169.885 236.239 169.885 239.117C169.885 239.457 169.866 239.798 169.828 240.139C169.79 240.479 169.771 240.669 169.771 240.707H148.077C148.266 243.281 149.194 245.269 150.86 246.67C152.526 248.071 154.419 248.771 156.539 248.771C159.795 248.771 162.294 247.257 164.035 244.228L169.374 246.783C168.124 249.093 166.383 250.948 164.149 252.349C161.953 253.712 159.359 254.393 156.369 254.393ZM163.524 235.936C163.448 235.028 163.146 234.1 162.615 233.153C162.085 232.207 161.253 231.412 160.117 230.768C159.019 230.087 157.637 229.746 155.971 229.746C154.116 229.746 152.507 230.314 151.144 231.45C149.819 232.586 148.91 234.081 148.418 235.936H163.524Z" fill="#5A5A5A"/>
<path d="M124.494 225.316H130.4V229.519H130.741C131.347 228.08 132.445 226.888 134.035 225.941C135.625 224.957 137.253 224.465 138.919 224.465C140.282 224.465 141.399 224.654 142.27 225.033V231.563C140.982 230.92 139.544 230.598 137.954 230.598C135.909 230.598 134.186 231.393 132.786 232.983C131.423 234.535 130.741 236.447 130.741 238.719V253.485H124.494V225.316Z" fill="#5A5A5A"/>
<path d="M115.578 220.546C114.404 220.546 113.401 220.148 112.568 219.353C111.773 218.52 111.375 217.517 111.375 216.343C111.375 215.17 111.773 214.185 112.568 213.39C113.401 212.557 114.404 212.141 115.578 212.141C116.751 212.141 117.736 212.557 118.531 213.39C119.364 214.185 119.78 215.17 119.78 216.343C119.78 217.517 119.364 218.52 118.531 219.353C117.736 220.148 116.751 220.546 115.578 220.546ZM112.454 225.316H118.701V253.485H112.454V225.316Z" fill="#5A5A5A"/>
<path d="M84 212.822H108.704V218.899H90.3606V230.598H106.887V236.618H90.3606V253.484H84V212.822Z" fill="#5A5A5A"/>
<path d="M21.1412 310.788C17.1925 310.788 13.6044 309.858 10.3771 307.997C7.14983 306.137 4.60596 303.593 2.74551 300.366C0.92303 297.1 0.0117904 293.474 0.0117904 289.488C0.0117904 285.501 0.92303 281.894 2.74551 278.667C4.60596 275.401 7.14983 272.839 10.3771 270.978C13.6044 269.118 17.1925 268.187 21.1412 268.187C24.1786 268.187 26.9503 268.776 29.4562 269.953C32.0001 271.092 34.2023 272.725 36.0627 274.851L32.5886 278.211C31.0319 276.351 29.3233 274.984 27.4629 274.111C25.6404 273.237 23.5332 272.801 21.1412 272.801C18.1796 272.801 15.4649 273.503 12.997 274.908C10.529 276.275 8.55466 278.23 7.0739 280.774C5.6311 283.28 4.9097 286.184 4.9097 289.488C4.9097 292.791 5.6311 295.715 7.0739 298.258C8.55466 300.764 10.529 302.72 12.997 304.125C15.4649 305.491 18.1796 306.175 21.1412 306.175C26.077 306.175 30.2725 304.143 33.7277 300.081L37.2587 303.498C35.3603 305.738 33.0252 307.523 30.2536 308.852C27.4819 310.142 24.4444 310.788 21.1412 310.788ZM41.5555 269.099H46.3965V309.877H41.5555V269.099ZM65.5356 310.788C62.688 310.788 60.1251 310.105 57.847 308.738C55.5689 307.371 53.7844 305.51 52.4935 303.156C51.2405 300.802 50.6141 298.201 50.6141 295.354C50.6141 292.506 51.2405 289.905 52.4935 287.551C53.7844 285.197 55.5689 283.337 57.847 281.97C60.1251 280.603 62.688 279.92 65.5356 279.92C68.3832 279.92 70.9461 280.603 73.2242 281.97C75.5023 283.337 77.2678 285.197 78.5208 287.551C79.8117 289.905 80.4572 292.506 80.4572 295.354C80.4572 298.201 79.8117 300.802 78.5208 303.156C77.2678 305.51 75.5023 307.371 73.2242 308.738C70.9461 310.105 68.3832 310.788 65.5356 310.788ZM65.5356 306.403C67.3201 306.403 68.9718 305.966 70.4905 305.093C72.0472 304.181 73.2812 302.891 74.1924 301.22C75.1416 299.549 75.6162 297.594 75.6162 295.354C75.6162 293.114 75.1416 291.158 74.1924 289.488C73.2812 287.817 72.0472 286.545 70.4905 285.672C68.9718 284.761 67.3201 284.305 65.5356 284.305C63.7511 284.305 62.0805 284.761 60.5238 285.672C58.9671 286.545 57.7141 287.817 56.7649 289.488C55.8537 291.158 55.3981 293.114 55.3981 295.354C55.3981 297.594 55.8537 299.549 56.7649 301.22C57.7141 302.891 58.9671 304.181 60.5238 305.093C62.0805 305.966 63.7511 306.403 65.5356 306.403ZM95.1976 310.788C91.7045 310.788 89.0278 309.763 87.1673 307.713C85.3448 305.662 84.4336 302.796 84.4336 299.113V280.831H89.2746V298.372C89.2746 301.144 89.901 303.175 91.154 304.466C92.407 305.757 94.0965 306.403 96.2228 306.403C97.8554 306.403 99.2982 305.966 100.551 305.093C101.842 304.219 102.829 303.08 103.513 301.676C104.234 300.271 104.595 298.79 104.595 297.233V280.831H109.436V309.877H104.823V305.662H104.595C103.797 307.105 102.526 308.32 100.779 309.307C99.0324 310.294 97.172 310.788 95.1976 310.788ZM127.471 310.788C124.889 310.788 122.535 310.124 120.408 308.795C118.32 307.466 116.669 305.643 115.454 303.327C114.239 300.973 113.631 298.315 113.631 295.354C113.631 292.43 114.239 289.791 115.454 287.437C116.669 285.083 118.32 283.242 120.408 281.913C122.535 280.584 124.889 279.92 127.471 279.92C129.711 279.92 131.704 280.432 133.451 281.457C135.197 282.445 136.526 283.679 137.437 285.159H137.665L137.437 281.116V269.099H142.278V309.877H137.665V305.605H137.437C136.526 307.048 135.197 308.282 133.451 309.307C131.704 310.294 129.711 310.788 127.471 310.788ZM128.04 306.403C129.749 306.403 131.324 305.947 132.767 305.036C134.248 304.125 135.425 302.834 136.298 301.163C137.209 299.492 137.665 297.556 137.665 295.354C137.665 293.152 137.209 291.215 136.298 289.545C135.425 287.874 134.248 286.583 132.767 285.672C131.324 284.761 129.749 284.305 128.04 284.305C126.369 284.305 124.794 284.761 123.313 285.672C121.832 286.583 120.636 287.893 119.725 289.602C118.852 291.272 118.415 293.19 118.415 295.354C118.415 297.518 118.852 299.454 119.725 301.163C120.636 302.834 121.832 304.125 123.313 305.036C124.794 305.947 126.369 306.403 128.04 306.403ZM161.356 269.099H184.935V273.712H166.14V287.665H183.112V292.221H166.14V309.877H161.356V269.099ZM191.797 275.477C190.847 275.477 190.031 275.136 189.348 274.452C188.664 273.769 188.322 272.953 188.322 272.003C188.322 271.054 188.664 270.257 189.348 269.611C190.031 268.928 190.847 268.586 191.797 268.586C192.746 268.586 193.562 268.928 194.246 269.611C194.929 270.257 195.271 271.054 195.271 272.003C195.271 272.953 194.929 273.769 194.246 274.452C193.6 275.136 192.784 275.477 191.797 275.477ZM189.405 280.831H194.189V309.877H189.405V280.831ZM200.658 280.831H205.271V285.501H205.499C206.068 283.906 207.169 282.596 208.802 281.571C210.434 280.508 212.143 279.977 213.928 279.977C215.256 279.977 216.395 280.166 217.345 280.546V285.786C216.13 285.178 214.763 284.875 213.244 284.875C211.839 284.875 210.548 285.273 209.371 286.071C208.194 286.868 207.245 287.95 206.524 289.317C205.84 290.646 205.499 292.089 205.499 293.645V309.877H200.658V280.831ZM232.08 310.788C229.308 310.788 226.821 310.124 224.619 308.795C222.417 307.466 220.689 305.643 219.436 303.327C218.221 300.973 217.614 298.334 217.614 295.411C217.614 292.601 218.183 290.019 219.322 287.665C220.499 285.311 222.151 283.432 224.277 282.027C226.404 280.622 228.871 279.92 231.681 279.92C234.529 279.92 236.997 280.565 239.085 281.856C241.173 283.109 242.768 284.856 243.869 287.096C245.008 289.336 245.578 291.899 245.578 294.784C245.578 295.354 245.521 295.847 245.407 296.265H222.455C222.569 298.467 223.1 300.328 224.049 301.846C224.999 303.365 226.195 304.504 227.637 305.264C229.118 306.023 230.656 306.403 232.251 306.403C235.972 306.403 238.838 304.656 240.85 301.163L244.951 303.156C243.698 305.51 241.99 307.371 239.825 308.738C237.699 310.105 235.117 310.788 232.08 310.788ZM240.452 292.278C240.376 291.063 240.034 289.848 239.427 288.633C238.819 287.418 237.851 286.393 236.522 285.558C235.231 284.723 233.599 284.305 231.624 284.305C229.346 284.305 227.41 285.045 225.815 286.526C224.258 287.969 223.233 289.886 222.74 292.278H240.452ZM260.52 310.788C257.406 310.788 254.805 310.067 252.717 308.624C250.629 307.143 249.148 305.264 248.275 302.985L252.603 301.049C253.325 302.796 254.388 304.143 255.792 305.093C257.235 306.042 258.811 306.517 260.52 306.517C262.342 306.517 263.899 306.156 265.19 305.434C266.481 304.675 267.126 303.612 267.126 302.245C267.126 301.03 266.613 300.062 265.588 299.341C264.563 298.581 262.95 297.936 260.747 297.404L257.216 296.493C254.9 295.923 253.002 294.955 251.521 293.588C250.04 292.221 249.3 290.456 249.3 288.292C249.3 286.621 249.793 285.159 250.781 283.906C251.806 282.615 253.154 281.628 254.824 280.945C256.495 280.261 258.298 279.92 260.235 279.92C262.779 279.92 265.038 280.47 267.012 281.571C269.024 282.672 270.448 284.21 271.284 286.184L267.069 288.121C265.778 285.539 263.481 284.248 260.178 284.248C258.583 284.248 257.178 284.628 255.963 285.387C254.786 286.109 254.198 287.039 254.198 288.178C254.198 289.241 254.615 290.114 255.451 290.798C256.286 291.443 257.539 291.975 259.21 292.392L263.424 293.474C266.272 294.196 268.417 295.278 269.86 296.721C271.303 298.126 272.024 299.853 272.024 301.903C272.024 303.688 271.511 305.264 270.486 306.63C269.461 307.959 268.075 308.984 266.329 309.706C264.582 310.427 262.646 310.788 260.52 310.788ZM287.046 310.332C285.869 310.332 284.768 310.142 283.743 309.763C282.756 309.383 281.921 308.871 281.237 308.225C280.478 307.504 279.908 306.668 279.529 305.719C279.149 304.77 278.959 303.612 278.959 302.245V285.216H273.89V280.831H278.959V272.63H283.8V280.831H290.862V285.216H283.8V301.049C283.8 302.644 284.104 303.821 284.711 304.58C285.433 305.415 286.477 305.833 287.844 305.833C288.945 305.833 290.008 305.51 291.033 304.865V309.592C290.464 309.858 289.875 310.048 289.268 310.161C288.698 310.275 287.958 310.332 287.046 310.332ZM307.706 310.788C304.858 310.788 302.296 310.105 300.017 308.738C297.739 307.371 295.955 305.51 294.664 303.156C293.411 300.802 292.784 298.201 292.784 295.354C292.784 292.506 293.411 289.905 294.664 287.551C295.955 285.197 297.739 283.337 300.017 281.97C302.296 280.603 304.858 279.92 307.706 279.92C310.554 279.92 313.117 280.603 315.395 281.97C317.673 283.337 319.438 285.197 320.691 287.551C321.982 289.905 322.628 292.506 322.628 295.354C322.628 298.201 321.982 300.802 320.691 303.156C319.438 305.51 317.673 307.371 315.395 308.738C313.117 310.105 310.554 310.788 307.706 310.788ZM307.706 306.403C309.491 306.403 311.142 305.966 312.661 305.093C314.218 304.181 315.452 302.891 316.363 301.22C317.312 299.549 317.787 297.594 317.787 295.354C317.787 293.114 317.312 291.158 316.363 289.488C315.452 287.817 314.218 286.545 312.661 285.672C311.142 284.761 309.491 284.305 307.706 284.305C305.922 284.305 304.251 284.761 302.694 285.672C301.138 286.545 299.885 287.817 298.935 289.488C298.024 291.158 297.568 293.114 297.568 295.354C297.568 297.594 298.024 299.549 298.935 301.22C299.885 302.891 301.138 304.181 302.694 305.093C304.251 305.966 305.922 306.403 307.706 306.403ZM326.554 280.831H331.167V285.501H331.395C331.964 283.906 333.065 282.596 334.698 281.571C336.331 280.508 338.039 279.977 339.824 279.977C341.153 279.977 342.292 280.166 343.241 280.546V285.786C342.026 285.178 340.659 284.875 339.14 284.875C337.735 284.875 336.444 285.273 335.267 286.071C334.09 286.868 333.141 287.95 332.42 289.317C331.736 290.646 331.395 292.089 331.395 293.645V309.877H326.554V280.831ZM357.976 310.788C355.204 310.788 352.717 310.124 350.515 308.795C348.313 307.466 346.585 305.643 345.332 303.327C344.117 300.973 343.51 298.334 343.51 295.411C343.51 292.601 344.08 290.019 345.219 287.665C346.396 285.311 348.047 283.432 350.173 282.027C352.3 280.622 354.768 279.92 357.577 279.92C360.425 279.92 362.893 280.565 364.981 281.856C367.069 283.109 368.664 284.856 369.765 287.096C370.904 289.336 371.474 291.899 371.474 294.784C371.474 295.354 371.417 295.847 371.303 296.265H348.351C348.465 298.467 348.996 300.328 349.946 301.846C350.895 303.365 352.091 304.504 353.534 305.264C355.014 306.023 356.552 306.403 358.147 306.403C361.868 306.403 364.734 304.656 366.747 301.163L370.847 303.156C369.594 305.51 367.886 307.371 365.721 308.738C363.595 310.105 361.013 310.788 357.976 310.788ZM366.348 292.278C366.272 291.063 365.93 289.848 365.323 288.633C364.715 287.418 363.747 286.393 362.418 285.558C361.127 284.723 359.495 284.305 357.52 284.305C355.242 284.305 353.306 285.045 351.711 286.526C350.154 287.969 349.129 289.886 348.636 292.278H366.348Z" fill="#5A5A5A"/>
<path d="M158.196 176.071C165.728 179.103 173.9 180.902 182.48 181.201C194.092 181.607 205.135 179.206 215.006 174.646C203.169 169.995 192.448 163.193 183.298 154.737C177.366 164.233 168.594 171.734 158.196 176.071Z" fill="#FF9100"/>
<path d="M183.298 154.74C162.411 135.423 149.74 107.463 150.811 76.7969C150.846 75.8011 150.898 74.8059 150.96 73.811C147.219 72.8435 143.314 72.2531 139.295 72.1128C133.542 71.9119 127.971 72.6254 122.712 74.1064C117.136 83.8733 113.771 95.0795 113.352 107.083C112.27 138.06 131.017 165.128 158.196 176.074C168.594 171.737 177.366 164.245 183.298 154.74Z" fill="#FFC400"/>
<path d="M183.298 154.739C188.154 146.968 191.099 137.857 191.441 128.04C192.343 102.22 174.985 80.008 150.96 73.8099C150.899 74.8048 150.846 75.8 150.812 76.7959C149.741 107.462 162.412 135.421 183.298 154.739Z" fill="#FF9100"/>
<path d="M188.755 1.23018C175.072 12.1917 164.268 26.6455 157.731 43.2959C153.988 52.833 151.636 63.0774 150.95 73.8163C174.974 80.0144 192.332 102.226 191.43 128.047C191.088 137.863 188.135 146.965 183.287 154.745C192.437 163.21 203.158 170.003 214.996 174.654C238.757 163.67 255.615 140.036 256.591 112.082C257.224 93.9699 250.265 77.8275 240.432 64.202C230.048 49.7916 188.755 1.23018 188.755 1.23018Z" fill="#DD2C00"/>
<g filter="url(#filter0_d_57_5489)">
<circle cx="261" cy="137" r="45" fill="white"/>
<path fill-rule="evenodd" clip-rule="evenodd" d="M261 139.25L240.75 148.25V139.25L261 130.25L281.25 139.25V147.125V145.438V148.25L261 139.25ZM261 114.5L281.25 123.5V132.5L261 123.5L240.75 132.5V123.5L261 114.5ZM268.594 147.125L278.719 151.625L261 159.5V150.5L268.594 147.125Z" fill="#1F1F1F"/>
</g>
<defs>
<filter id="filter0_d_57_5489" x="210" y="88.0029" width="102" height="102" filterUnits="userSpaceOnUse" color-interpolation-filters="sRGB">
<feFlood flood-opacity="0" result="BackgroundImageFix"/>
<feColorMatrix in="SourceAlpha" type="matrix" values="0 0 0 0 0 0 0 0 0 0 0 0 0 0 0 0 0 0 127 0" result="hardAlpha"/>
<feOffset dy="2.0029"/>
<feGaussianBlur stdDeviation="3"/>
<feComposite in2="hardAlpha" operator="out"/>
<feColorMatrix type="matrix" values="0 0 0 0 0 0 0 0 0 0 0 0 0 0 0 0 0 0 0.3 0"/>
<feBlend mode="normal" in2="BackgroundImageFix" result="effect1_dropShadow_57_5489"/>
<feBlend mode="normal" in="SourceGraphic" in2="effect1_dropShadow_57_5489" result="shape"/>
</filter>
</defs>
</svg>
