<svg width="228" height="327" viewBox="0 0 228 327" fill="none" xmlns="http://www.w3.org/2000/svg">
<path d="M189.285 254.393C186.521 254.393 184.022 253.75 181.788 252.462C179.592 251.175 177.87 249.396 176.62 247.124C175.371 244.815 174.746 242.24 174.746 239.4C174.746 236.675 175.333 234.176 176.507 231.904C177.718 229.595 179.403 227.777 181.561 226.452C183.719 225.089 186.18 224.408 188.944 224.408C191.783 224.408 194.244 225.032 196.327 226.282C198.447 227.531 200.056 229.273 201.154 231.507C202.252 233.702 202.801 236.239 202.801 239.117C202.801 239.457 202.782 239.798 202.744 240.139C202.706 240.479 202.687 240.669 202.687 240.707H180.993C181.182 243.281 182.11 245.269 183.776 246.67C185.442 248.071 187.335 248.771 189.455 248.771C192.711 248.771 195.21 247.257 196.951 244.228L202.29 246.783C201.04 249.093 199.299 250.948 197.065 252.349C194.869 253.712 192.275 254.393 189.285 254.393ZM196.44 235.936C196.364 235.028 196.062 234.1 195.531 233.153C195.001 232.207 194.169 231.412 193.033 230.768C191.935 230.087 190.553 229.746 188.887 229.746C187.032 229.746 185.423 230.314 184.06 231.45C182.735 232.586 181.826 234.081 181.334 235.936H196.44Z" fill="#5A5A5A"/>
<path d="M161.035 254.393C157.817 254.393 155.148 253.655 153.027 252.178C150.945 250.664 149.468 248.771 148.598 246.499L154.163 244.114C154.807 245.666 155.734 246.84 156.946 247.635C158.195 248.43 159.558 248.828 161.035 248.828C162.587 248.828 163.855 248.544 164.84 247.976C165.824 247.37 166.316 246.594 166.316 245.647C166.316 244.739 165.919 244.001 165.124 243.433C164.329 242.827 163.022 242.297 161.205 241.842L157.343 240.934C155.223 240.442 153.387 239.533 151.835 238.208C150.32 236.845 149.563 235.084 149.563 232.926C149.563 230.314 150.642 228.251 152.8 226.736C154.958 225.184 157.608 224.408 160.751 224.408C163.363 224.408 165.673 224.957 167.679 226.055C169.724 227.153 171.2 228.743 172.109 230.825L166.6 233.153C166.07 231.98 165.256 231.109 164.158 230.541C163.06 229.973 161.868 229.689 160.581 229.689C159.331 229.689 158.233 229.973 157.287 230.541C156.34 231.071 155.867 231.791 155.867 232.699C155.867 233.494 156.189 234.138 156.832 234.63C157.514 235.122 158.574 235.539 160.013 235.879L164.215 236.902C167.055 237.621 169.175 238.719 170.576 240.196C171.977 241.634 172.677 243.376 172.677 245.42C172.677 247.086 172.166 248.601 171.144 249.964C170.159 251.327 168.777 252.406 166.998 253.201C165.256 253.996 163.269 254.393 161.035 254.393Z" fill="#5A5A5A"/>
<path d="M131.149 254.393C129.143 254.393 127.325 253.996 125.697 253.201C124.107 252.368 122.839 251.232 121.892 249.793C120.984 248.317 120.529 246.651 120.529 244.796C120.529 241.842 121.627 239.514 123.823 237.81C126.057 236.107 128.878 235.255 132.285 235.255C135.276 235.255 137.832 235.766 139.952 236.788V235.595C139.952 233.892 139.27 232.491 137.907 231.393C136.582 230.257 134.973 229.689 133.08 229.689C130.203 229.689 127.893 230.863 126.152 233.21L121.381 229.916C122.706 228.137 124.353 226.774 126.322 225.827C128.329 224.881 130.581 224.408 133.08 224.408C137.207 224.408 140.387 225.449 142.621 227.531C144.893 229.576 146.028 232.472 146.028 236.22V253.485H139.952V250.02H139.611C138.702 251.308 137.548 252.368 136.147 253.201C134.746 253.996 133.08 254.393 131.149 254.393ZM132.171 249.225C133.572 249.225 134.859 248.885 136.033 248.203C137.245 247.484 138.191 246.556 138.873 245.42C139.592 244.247 139.952 242.997 139.952 241.672C137.945 240.574 135.806 240.025 133.534 240.025C131.452 240.025 129.824 240.479 128.65 241.388C127.477 242.297 126.89 243.452 126.89 244.852C126.89 246.14 127.401 247.2 128.423 248.033C129.483 248.828 130.733 249.225 132.171 249.225Z" fill="#5A5A5A"/>
<path d="M104.939 254.393C102.894 254.393 101.058 253.958 99.4303 253.087C97.8401 252.216 96.6475 251.118 95.8524 249.793H95.5117V253.484H89.6055V212.822H95.8524V225.032L95.5117 228.951H95.8524C96.6475 227.664 97.8401 226.585 99.4303 225.714C101.058 224.843 102.894 224.408 104.939 224.408C107.362 224.408 109.596 225.051 111.64 226.338C113.723 227.626 115.37 229.424 116.581 231.734C117.83 234.005 118.455 236.561 118.455 239.4C118.455 242.24 117.83 244.795 116.581 247.067C115.37 249.339 113.723 251.137 111.64 252.462C109.596 253.749 107.362 254.393 104.939 254.393ZM103.86 248.657C105.336 248.657 106.699 248.279 107.949 247.521C109.236 246.764 110.258 245.685 111.016 244.284C111.811 242.846 112.208 241.218 112.208 239.4C112.208 237.583 111.811 235.974 111.016 234.573C110.258 233.134 109.236 232.036 107.949 231.279C106.699 230.522 105.336 230.143 103.86 230.143C102.383 230.143 101.001 230.522 99.7142 231.279C98.4648 232.036 97.4426 233.115 96.6475 234.516C95.8903 235.917 95.5117 237.545 95.5117 239.4C95.5117 241.255 95.8903 242.883 96.6475 244.284C97.4426 245.685 98.4648 246.764 99.7142 247.521C101.001 248.279 102.383 248.657 103.86 248.657Z" fill="#5A5A5A"/>
<path d="M72.3685 254.393C69.6047 254.393 67.1059 253.75 64.8721 252.462C62.6762 251.175 60.9536 249.396 59.7042 247.124C58.4548 244.815 57.8301 242.24 57.8301 239.4C57.8301 236.675 58.4169 234.176 59.5906 231.904C60.8021 229.595 62.4869 227.777 64.645 226.452C66.803 225.089 69.2639 224.408 72.0278 224.408C74.8673 224.408 77.3282 225.032 79.4106 226.282C81.5307 227.531 83.1398 229.273 84.2378 231.507C85.3357 233.702 85.8847 236.239 85.8847 239.117C85.8847 239.457 85.8658 239.798 85.8279 240.139C85.79 240.479 85.7711 240.669 85.7711 240.707H64.0771C64.2664 243.281 65.1939 245.269 66.8598 246.67C68.5257 248.071 70.4187 248.771 72.5389 248.771C75.7949 248.771 78.2937 247.257 80.0353 244.228L85.3736 246.783C84.1242 249.093 82.3826 250.948 80.1488 252.349C77.9529 253.712 75.3595 254.393 72.3685 254.393ZM79.5241 235.936C79.4484 235.028 79.1455 234.1 78.6155 233.153C78.0854 232.207 77.2525 231.412 76.1167 230.768C75.0187 230.087 73.6368 229.746 71.971 229.746C70.1158 229.746 68.5067 230.314 67.1438 231.45C65.8186 232.586 64.91 234.081 64.4178 235.936H79.5241Z" fill="#5A5A5A"/>
<path d="M40.4941 225.316H46.4004V229.519H46.7411C47.3469 228.08 48.4448 226.888 50.035 225.941C51.6251 224.957 53.2531 224.465 54.919 224.465C56.282 224.465 57.3988 224.654 58.2696 225.033V231.563C56.9824 230.92 55.5437 230.598 53.9535 230.598C51.9091 230.598 50.1864 231.393 48.7856 232.983C47.4226 234.535 46.7411 236.447 46.7411 238.719V253.485H40.4941V225.316Z" fill="#5A5A5A"/>
<path d="M31.5775 220.546C30.4038 220.546 29.4005 220.148 28.5676 219.353C27.7725 218.52 27.375 217.517 27.375 216.343C27.375 215.17 27.7725 214.185 28.5676 213.39C29.4005 212.557 30.4038 212.141 31.5775 212.141C32.7512 212.141 33.7356 212.557 34.5306 213.39C35.3636 214.185 35.78 215.17 35.78 216.343C35.78 217.517 35.3636 218.52 34.5306 219.353C33.7356 220.148 32.7512 220.546 31.5775 220.546ZM28.454 225.316H34.701V253.485H28.454V225.316Z" fill="#5A5A5A"/>
<path d="M0 212.822H24.704V218.899H6.36056V230.598H22.8867V236.618H6.36056V253.484H0V212.822Z" fill="#5A5A5A"/>
<path d="M9.63966 269.099H14.4237V286.754H35.4961V269.099H40.2801V309.877H35.4961V291.31H14.4237V309.877H9.63966V269.099ZM60.6829 310.788C57.8352 310.788 55.2724 310.105 52.9943 308.738C50.7162 307.371 48.9317 305.51 47.6408 303.156C46.3878 300.802 45.7613 298.201 45.7613 295.354C45.7613 292.506 46.3878 289.905 47.6408 287.551C48.9317 285.197 50.7162 283.337 52.9943 281.97C55.2724 280.603 57.8352 279.92 60.6829 279.92C63.5305 279.92 66.0934 280.603 68.3715 281.97C70.6496 283.337 72.4151 285.197 73.668 287.551C74.959 289.905 75.6044 292.506 75.6044 295.354C75.6044 298.201 74.959 300.802 73.668 303.156C72.4151 305.51 70.6496 307.371 68.3715 308.738C66.0934 310.105 63.5305 310.788 60.6829 310.788ZM60.6829 306.403C62.4674 306.403 64.119 305.966 65.6377 305.093C67.1944 304.181 68.4284 302.891 69.3396 301.22C70.2889 299.549 70.7635 297.594 70.7635 295.354C70.7635 293.114 70.2889 291.158 69.3396 289.488C68.4284 287.817 67.1944 286.545 65.6377 285.672C64.119 284.761 62.4674 284.305 60.6829 284.305C58.8984 284.305 57.2278 284.761 55.671 285.672C54.1143 286.545 52.8614 287.817 51.9122 289.488C51.0009 291.158 50.5453 293.114 50.5453 295.354C50.5453 297.594 51.0009 299.549 51.9122 301.22C52.8614 302.891 54.1143 304.181 55.671 305.093C57.2278 305.966 58.8984 306.403 60.6829 306.403ZM89.9462 310.788C86.8328 310.788 84.232 310.067 82.1437 308.624C80.0555 307.143 78.5747 305.264 77.7014 302.985L82.0298 301.049C82.7512 302.796 83.8143 304.143 85.2192 305.093C86.662 306.042 88.2376 306.517 89.9462 306.517C91.7687 306.517 93.3254 306.156 94.6163 305.434C95.9072 304.675 96.5527 303.612 96.5527 302.245C96.5527 301.03 96.0401 300.062 95.015 299.341C93.9898 298.581 92.3762 297.936 90.174 297.404L86.643 296.493C84.3269 295.923 82.4285 294.955 80.9477 293.588C79.467 292.221 78.7266 290.456 78.7266 288.292C78.7266 286.621 79.2202 285.159 80.2073 283.906C81.2325 282.615 82.5804 281.628 84.251 280.945C85.9216 280.261 87.7251 279.92 89.6615 279.92C92.2053 279.92 94.4644 280.47 96.4388 281.571C98.4511 282.672 99.8749 284.21 100.71 286.184L96.4957 288.121C95.2048 285.539 92.9077 284.248 89.6045 284.248C88.0098 284.248 86.605 284.628 85.39 285.387C84.213 286.109 83.6245 287.039 83.6245 288.178C83.6245 289.241 84.0421 290.114 84.8774 290.798C85.7127 291.443 86.9657 291.975 88.6363 292.392L92.8508 293.474C95.6984 294.196 97.8436 295.278 99.2864 296.721C100.729 298.126 101.451 299.853 101.451 301.903C101.451 303.688 100.938 305.264 99.9129 306.63C98.8878 307.959 97.5019 308.984 95.7554 309.706C94.0088 310.427 92.0724 310.788 89.9462 310.788ZM116.473 310.332C115.296 310.332 114.195 310.142 113.17 309.763C112.183 309.383 111.347 308.871 110.664 308.225C109.905 307.504 109.335 306.668 108.955 305.719C108.576 304.77 108.386 303.612 108.386 302.245V285.216H103.317V280.831H108.386V272.63H113.227V280.831H120.289V285.216H113.227V301.049C113.227 302.644 113.531 303.821 114.138 304.58C114.86 305.415 115.904 305.833 117.27 305.833C118.372 305.833 119.435 305.51 120.46 304.865V309.592C119.89 309.858 119.302 310.048 118.694 310.161C118.125 310.275 117.384 310.332 116.473 310.332ZM128.154 275.477C127.205 275.477 126.388 275.136 125.705 274.452C125.021 273.769 124.68 272.953 124.68 272.003C124.68 271.054 125.021 270.257 125.705 269.611C126.388 268.928 127.205 268.586 128.154 268.586C129.103 268.586 129.919 268.928 130.603 269.611C131.286 270.257 131.628 271.054 131.628 272.003C131.628 272.953 131.286 273.769 130.603 274.452C129.957 275.136 129.141 275.477 128.154 275.477ZM125.762 280.831H130.546V309.877H125.762V280.831ZM137.015 280.831H141.628V285.102H141.856C142.653 283.66 143.925 282.445 145.672 281.457C147.418 280.432 149.279 279.92 151.253 279.92C154.746 279.92 157.404 280.945 159.226 282.995C161.087 285.007 162.017 287.76 162.017 291.253V309.877H157.176V291.994C157.176 289.298 156.53 287.343 155.24 286.128C153.949 284.913 152.183 284.305 149.943 284.305C148.386 284.305 146.981 284.742 145.728 285.615C144.514 286.488 143.564 287.646 142.881 289.089C142.197 290.494 141.856 291.975 141.856 293.531V309.877H137.015V280.831ZM180.28 323.09C176.862 323.09 174.034 322.292 171.794 320.698C169.591 319.103 168.111 317.186 167.351 314.945L171.737 313.066C172.382 314.737 173.445 316.085 174.926 317.11C176.445 318.173 178.229 318.704 180.28 318.704C183.279 318.704 185.595 317.831 187.228 316.085C188.898 314.338 189.734 311.87 189.734 308.681V305.434H189.506C188.557 306.915 187.209 308.13 185.462 309.079C183.754 309.991 181.798 310.446 179.596 310.446C177.09 310.446 174.793 309.801 172.705 308.51C170.655 307.219 169.022 305.415 167.807 303.099C166.592 300.783 165.984 298.144 165.984 295.183C165.984 292.259 166.592 289.64 167.807 287.324C169.022 284.969 170.655 283.147 172.705 281.856C174.793 280.565 177.09 279.92 179.596 279.92C181.798 279.92 183.754 280.394 185.462 281.344C187.209 282.255 188.557 283.47 189.506 284.988H189.734V280.831H194.347V308.738C194.347 313.408 193.056 316.958 190.474 319.388C187.892 321.856 184.494 323.09 180.28 323.09ZM180.28 306.061C182.026 306.061 183.602 305.624 185.007 304.751C186.449 303.878 187.588 302.625 188.424 300.992C189.297 299.359 189.734 297.423 189.734 295.183C189.734 292.905 189.297 290.95 188.424 289.317C187.588 287.684 186.449 286.45 185.007 285.615C183.602 284.742 182.026 284.305 180.28 284.305C178.533 284.305 176.938 284.742 175.495 285.615C174.053 286.488 172.895 287.741 172.021 289.374C171.186 291.006 170.768 292.943 170.768 295.183C170.768 297.423 171.186 299.378 172.021 301.049C172.895 302.682 174.053 303.935 175.495 304.808C176.938 305.643 178.533 306.061 180.28 306.061Z" fill="#5A5A5A"/>
<path d="M74.196 176.072C81.7283 179.103 89.9 180.902 98.4802 181.202C110.092 181.607 121.135 179.206 131.006 174.646C119.169 169.995 108.448 163.193 99.2975 154.737C93.3664 164.234 84.5939 171.734 74.196 176.072Z" fill="#FF9100"/>
<path d="M99.2975 154.739C78.4109 135.422 65.7401 107.463 66.811 76.7966C66.8458 75.8008 66.8984 74.8056 66.9598 73.8107C63.2191 72.8432 59.3138 72.2528 55.2949 72.1125C49.5422 71.9116 43.9712 72.6251 38.7116 74.1061C33.1361 83.873 29.7714 95.0792 29.3522 107.083C28.2705 138.06 47.017 165.128 74.196 176.074C84.5939 171.737 93.3661 164.245 99.2975 154.739Z" fill="#FFC400"/>
<path d="M99.2982 154.739C104.154 146.968 107.099 137.857 107.441 128.04C108.343 102.22 90.9848 80.008 66.9605 73.8099C66.899 74.8048 66.8465 75.8 66.8117 76.7959C65.7408 107.462 78.4116 135.421 99.2982 154.739Z" fill="#FF9100"/>
<path d="M104.755 1.23018C91.0723 12.1917 80.2677 26.6455 73.7306 43.2959C69.9881 52.833 67.6362 63.0774 66.9496 73.8163C90.9739 80.0144 108.332 102.226 107.43 128.047C107.088 137.863 104.135 146.965 99.2873 154.745C108.437 163.21 119.158 170.003 130.996 174.654C154.757 163.67 171.615 140.036 172.591 112.082C173.224 93.9699 166.265 77.8275 156.432 64.202C146.048 49.7916 104.755 1.23018 104.755 1.23018Z" fill="#DD2C00"/>
<g filter="url(#filter0_d_57_5639)">
<circle cx="177" cy="137" r="45" fill="white"/>
<path d="M177 114.5C164.58 114.5 154.5 124.58 154.5 137C154.5 149.42 164.58 159.5 177 159.5C189.42 159.5 199.5 149.42 199.5 137C199.5 124.58 189.42 114.5 177 114.5ZM174.75 154.843C165.863 153.74 159 146.18 159 137C159 135.605 159.18 134.278 159.472 132.973L170.25 143.75V146C170.25 148.475 172.275 150.5 174.75 150.5V154.843ZM190.275 149.128C189.69 147.305 188.025 146 186 146H183.75V139.25C183.75 138.013 182.737 137 181.5 137H168V132.5H172.5C173.737 132.5 174.75 131.488 174.75 130.25V125.75H179.25C181.725 125.75 183.75 123.725 183.75 121.25V120.328C190.342 123.005 195 129.463 195 137C195 141.68 193.2 145.933 190.275 149.128Z" fill="#1F1F1F"/>
</g>
<defs>
<filter id="filter0_d_57_5639" x="126" y="88.0029" width="102" height="102" filterUnits="userSpaceOnUse" color-interpolation-filters="sRGB">
<feFlood flood-opacity="0" result="BackgroundImageFix"/>
<feColorMatrix in="SourceAlpha" type="matrix" values="0 0 0 0 0 0 0 0 0 0 0 0 0 0 0 0 0 0 127 0" result="hardAlpha"/>
<feOffset dy="2.0029"/>
<feGaussianBlur stdDeviation="3"/>
<feComposite in2="hardAlpha" operator="out"/>
<feColorMatrix type="matrix" values="0 0 0 0 0 0 0 0 0 0 0 0 0 0 0 0 0 0 0.3 0"/>
<feBlend mode="normal" in2="BackgroundImageFix" result="effect1_dropShadow_57_5639"/>
<feBlend mode="normal" in="SourceGraphic" in2="effect1_dropShadow_57_5639" result="shape"/>
</filter>
</defs>
</svg>
